# Blender v2.79 (sub 4) OBJ File: 'coffeeMachine.blend'
# www.blender.org
mtllib coffeeMachine.mtl
o Cylinder
v 0.980785 -0.100000 0.195090
v 0.980785 0.100000 0.195090
v 0.923880 -0.100000 0.382683
v 0.923880 0.100000 0.382683
v 0.831470 -0.100000 0.555570
v 0.831470 0.100000 0.555570
v 0.707107 -0.100000 0.707107
v 0.707107 0.100000 0.707107
v 0.555570 -0.100000 0.831470
v 0.555570 0.100000 0.831470
v 0.382683 -0.100000 0.923880
v 0.382683 0.100000 0.923880
v 0.195090 -0.100000 0.980785
v 0.195090 0.100000 0.980785
v -0.000000 -0.100000 1.000000
v -0.000000 0.100000 1.000000
v -0.195091 -0.100000 0.980785
v -0.195091 0.100000 0.980785
v -0.382684 -0.100000 0.923879
v -0.382684 0.100000 0.923879
v -0.555571 -0.100000 0.831469
v -0.555571 0.100000 0.831469
v -0.707107 -0.100000 0.707106
v -0.707107 0.100000 0.707106
v -0.831470 -0.100000 0.555570
v -0.831470 0.100000 0.555570
v -0.923880 -0.100000 0.382683
v -0.923880 0.100000 0.382683
v -0.980785 -0.100000 0.195089
v -0.980785 0.100000 0.195089
v -0.831590 -0.414811 0.864892
v -0.000001 -0.100000 1.500000
v -0.000001 0.100000 1.500000
v -0.292636 -0.100000 1.471178
v -0.292636 0.100000 1.471178
v -0.574026 -0.100000 1.385819
v -0.574026 0.100000 1.385819
v -0.833356 -0.100000 1.247204
v -0.833356 0.100000 1.247204
v -1.060661 -0.100000 1.060660
v -1.060661 0.100000 1.060660
v -1.247205 -0.100000 0.833354
v -1.247205 0.100000 0.833354
v -1.385820 -0.100000 0.574024
v -1.385820 0.100000 0.574024
v -1.471178 -0.100000 0.292634
v -1.471178 0.100000 0.292634
v -0.000000 0.100000 1.000000
v -0.195091 0.100000 0.980785
v -0.382684 0.100000 0.923879
v -0.555571 0.100000 0.831469
v -0.707107 0.100000 0.707106
v -0.831470 0.100000 0.555570
v -0.923880 0.100000 0.382683
v -0.980785 0.100000 0.195089
v -0.000001 0.100000 1.500000
v -0.292636 0.100000 1.471178
v -0.574026 0.100000 1.385819
v -0.833356 0.100000 1.247204
v -1.060661 0.100000 1.060660
v -1.247205 0.100000 0.833354
v -1.385820 0.100000 0.574024
v -1.471178 0.100000 0.292634
v -0.000000 1.599717 1.000000
v -0.195091 1.599717 0.980785
v -0.382684 1.599717 0.923879
v -0.555571 1.599717 0.831469
v -0.707107 1.599717 0.707106
v -0.831470 1.599717 0.555570
v -0.923880 1.599717 0.382683
v -0.980785 1.599717 0.195089
v -0.000001 1.599717 1.500000
v -0.292636 1.599717 1.471178
v -0.574026 1.599717 1.385819
v -0.833356 1.599717 1.247204
v -1.060661 1.599717 1.060660
v -1.247205 1.599717 0.833354
v -1.385820 1.599717 0.574024
v -1.471178 1.599717 0.292634
v 1.000000 -0.100000 0.000000
v 1.000000 0.100000 0.000000
v 0.980785 -0.100000 -0.195090
v 0.980785 0.100000 -0.195090
v 0.923880 -0.100000 -0.382683
v 0.923880 0.100000 -0.382683
v 0.831470 -0.100000 -0.555570
v 0.831470 0.100000 -0.555570
v 0.707107 -0.100000 -0.707107
v 0.707107 0.100000 -0.707107
v 0.555570 -0.100000 -0.831470
v 0.555570 0.100000 -0.831470
v 0.382683 -0.100000 -0.923880
v 0.382683 0.100000 -0.923880
v 0.195090 -0.100000 -0.980785
v 0.195090 0.100000 -0.980785
v -0.000000 -0.100000 -1.000000
v -0.000000 0.100000 -1.000000
v -0.195091 -0.100000 -0.980785
v -0.195091 0.100000 -0.980785
v -0.382684 -0.100000 -0.923879
v -0.382684 0.100000 -0.923879
v -0.555571 -0.100000 -0.831469
v -0.555571 0.100000 -0.831469
v -0.707107 -0.100000 -0.707106
v -0.707107 0.100000 -0.707106
v -0.831470 -0.100000 -0.555570
v -0.831470 0.100000 -0.555570
v -0.923880 -0.100000 -0.382683
v -0.923880 0.100000 -0.382683
v -0.980785 -0.100000 -0.195089
v -0.980785 0.100000 -0.195089
v -1.000000 -0.100000 0.000000
v -1.000000 0.100000 0.000000
v -0.831590 -0.414811 -0.864892
v -0.000001 -0.100000 -1.500000
v -0.000001 0.100000 -1.500000
v -0.292636 -0.100000 -1.471178
v -0.292636 0.100000 -1.471178
v -0.574026 -0.100000 -1.385819
v -0.574026 0.100000 -1.385819
v -0.833356 -0.100000 -1.247204
v -0.833356 0.100000 -1.247204
v -1.060661 -0.100000 -1.060660
v -1.060661 0.100000 -1.060660
v -1.247205 -0.100000 -0.833354
v -1.247205 0.100000 -0.833354
v -1.385820 -0.100000 -0.574024
v -1.385820 0.100000 -0.574024
v -1.471178 -0.100000 -0.292634
v -1.471178 0.100000 -0.292634
v -1.500000 -0.100000 0.000000
v -1.500000 0.100000 0.000000
v -0.000000 0.100000 -1.000000
v -0.195091 0.100000 -0.980785
v -0.382684 0.100000 -0.923879
v -0.555571 0.100000 -0.831469
v -0.707107 0.100000 -0.707106
v -0.831470 0.100000 -0.555570
v -0.923880 0.100000 -0.382683
v -0.980785 0.100000 -0.195089
v -1.000000 0.100000 0.000000
v -0.000001 0.100000 -1.500000
v -0.292636 0.100000 -1.471178
v -0.574026 0.100000 -1.385819
v -0.833356 0.100000 -1.247204
v -1.060661 0.100000 -1.060660
v -1.247205 0.100000 -0.833354
v -1.385820 0.100000 -0.574024
v -1.471178 0.100000 -0.292634
v -1.500000 0.100000 0.000000
v -0.000000 1.599717 -1.000000
v -0.195091 1.599717 -0.980785
v -0.382684 1.599717 -0.923879
v -0.555571 1.599717 -0.831469
v -0.707107 1.599717 -0.707106
v -0.831470 1.599717 -0.555570
v -0.923880 1.599717 -0.382683
v -0.980785 1.599717 -0.195089
v -1.000000 1.599717 0.000000
v -0.000001 1.599717 -1.500000
v -0.292636 1.599717 -1.471178
v -0.574026 1.599717 -1.385819
v -0.833356 1.599717 -1.247204
v -1.060661 1.599717 -1.060660
v -1.247205 1.599717 -0.833354
v -1.385820 1.599717 -0.574024
v -1.471178 1.599717 -0.292634
v -1.500000 1.599717 0.000000
v 0.000000 3.100000 -1.000000
v 0.000000 3.400000 -1.000000
v 0.195090 3.100000 -0.980785
v 0.195090 3.400000 -0.980785
v 0.382683 3.100000 -0.923880
v 0.382683 3.400000 -0.923880
v 0.555570 3.100000 -0.831470
v 0.555570 3.400000 -0.831470
v 0.707107 3.100000 -0.707107
v 0.707107 3.400000 -0.707107
v 0.831470 3.100000 -0.555570
v 0.831470 3.400000 -0.555570
v 0.923880 3.100000 -0.382683
v 0.923880 3.400000 -0.382683
v 0.980785 3.100000 -0.195090
v 0.980785 3.400000 -0.195090
v 1.000000 3.100000 -0.000000
v 1.000000 3.400000 -0.000000
v 0.980785 3.100000 0.195090
v 0.980785 3.400000 0.195090
v 0.923880 3.100000 0.382683
v 0.923880 3.400000 0.382683
v 0.831470 3.100000 0.555570
v 0.831470 3.400000 0.555570
v 0.707107 3.100000 0.707107
v 0.707107 3.400000 0.707107
v 0.555570 3.100000 0.831470
v 0.555570 3.400000 0.831470
v 0.382683 3.100000 0.923880
v 0.382683 3.400000 0.923880
v 0.195090 3.100000 0.980785
v 0.195090 3.400000 0.980785
v -0.000000 3.100000 1.000000
v -0.000000 3.400000 1.000000
v -0.195091 3.100000 0.980785
v -0.195091 3.400000 0.980785
v -0.382684 3.100000 0.923879
v -0.382684 3.400000 0.923879
v -0.555571 3.100000 0.831469
v -0.555571 3.400000 0.831469
v -0.707107 3.100000 0.707106
v -0.707107 3.400000 0.707106
v -0.831470 3.100000 0.555570
v -0.831470 3.400000 0.555570
v -0.923880 3.100000 0.382683
v -0.923880 3.400000 0.382683
v -0.980785 3.100000 0.195089
v -0.980785 3.400000 0.195089
v -1.000000 3.100000 -0.000001
v -1.000000 3.400000 -0.000001
v -0.980785 3.100000 -0.195091
v -0.980785 3.400000 -0.195091
v -0.923879 3.100000 -0.382684
v -0.923879 3.400000 -0.382684
v -0.831469 3.100000 -0.555571
v -0.831469 3.400000 -0.555571
v -0.707106 3.100000 -0.707108
v -0.707106 3.400000 -0.707108
v -0.555569 3.100000 -0.831470
v -0.555569 3.400000 -0.831470
v -0.382682 3.100000 -0.923880
v -0.382682 3.400000 -0.923880
v -0.195089 3.100000 -0.980786
v -0.195089 3.400000 -0.980786
v 0.000000 3.100000 -0.950000
v 0.185336 3.100000 -0.931746
v 0.363549 3.100000 -0.877686
v 0.527792 3.100000 -0.789896
v 0.671751 3.100000 -0.671751
v 0.789896 3.100000 -0.527792
v 0.877686 3.100000 -0.363549
v 0.931746 3.100000 -0.185336
v 0.950000 3.100000 -0.000000
v 0.931746 3.100000 0.185336
v 0.877686 3.100000 0.363549
v 0.789896 3.100000 0.527792
v 0.671751 3.100000 0.671751
v 0.527792 3.100000 0.789896
v 0.363549 3.100000 0.877686
v 0.185336 3.100000 0.931746
v -0.000000 3.100000 0.950000
v -0.185336 3.100000 0.931746
v -0.363550 3.100000 0.877685
v -0.527792 3.100000 0.789896
v -0.671752 3.100000 0.671751
v -0.789896 3.100000 0.527791
v -0.877686 3.100000 0.363549
v -0.931746 3.100000 0.185335
v -0.950000 3.100000 -0.000001
v -0.931746 3.100000 -0.185337
v -0.877685 3.100000 -0.363550
v -0.789895 3.100000 -0.527793
v -0.671751 3.100000 -0.671752
v -0.527791 3.100000 -0.789897
v -0.363548 3.100000 -0.877686
v -0.185334 3.100000 -0.931746
v 0.000000 1.600000 -0.570000
v 0.111202 1.600000 -0.559048
v 0.218130 1.600000 -0.526611
v 0.316675 1.600000 -0.473938
v 0.403051 1.600000 -0.403051
v 0.473938 1.600000 -0.316675
v 0.526611 1.600000 -0.218130
v 0.559048 1.600000 -0.111202
v 0.570000 1.600000 -0.000000
v 0.559048 1.600000 0.111201
v 0.526611 1.600000 0.218129
v 0.473938 1.600000 0.316675
v 0.403051 1.600000 0.403051
v 0.316675 1.600000 0.473938
v 0.218130 1.600000 0.526611
v 0.111201 1.600000 0.559048
v -0.000000 1.600000 0.570000
v -0.111202 1.600000 0.559047
v -0.218130 1.600000 0.526611
v -0.316675 1.600000 0.473937
v -0.403051 1.600000 0.403050
v -0.473938 1.600000 0.316675
v -0.526611 1.600000 0.218129
v -0.559048 1.600000 0.111201
v -0.570000 1.600000 -0.000001
v -0.559047 1.600000 -0.111202
v -0.526611 1.600000 -0.218130
v -0.473937 1.600000 -0.316676
v -0.403050 1.600000 -0.403051
v -0.316674 1.600000 -0.473938
v -0.218129 1.600000 -0.526612
v -0.111201 1.600000 -0.559048
v 0.000000 0.100000 -0.950000
v 0.000000 1.600000 -0.950000
v 0.185336 0.100000 -0.931746
v 0.185336 1.600000 -0.931746
v 0.363549 0.100000 -0.877686
v 0.363549 1.600000 -0.877686
v 0.527792 0.100000 -0.789896
v 0.527792 1.600000 -0.789896
v 0.671751 0.100000 -0.671751
v 0.671751 1.600000 -0.671751
v 0.789896 0.100000 -0.527792
v 0.789896 1.600000 -0.527792
v 0.877686 0.100000 -0.363549
v 0.877686 1.600000 -0.363549
v 0.931746 0.100000 -0.185336
v 0.931746 1.600000 -0.185336
v 0.950000 0.100000 -0.000000
v 0.950000 1.600000 -0.000000
v 0.931746 0.100000 0.185336
v 0.931746 1.600000 0.185336
v 0.877686 0.100000 0.363549
v 0.877686 1.600000 0.363549
v 0.789896 0.100000 0.527792
v 0.789896 1.600000 0.527792
v 0.671751 0.100000 0.671751
v 0.671751 1.600000 0.671751
v 0.527792 0.100000 0.789896
v 0.527792 1.600000 0.789896
v 0.363549 0.100000 0.877686
v 0.363549 1.600000 0.877686
v 0.185336 0.100000 0.931746
v 0.185336 1.600000 0.931746
v -0.000000 0.100000 0.950000
v -0.000000 1.600000 0.950000
v -0.185336 0.100000 0.931746
v -0.185336 1.600000 0.931746
v -0.363550 0.100000 0.877685
v -0.363550 1.600000 0.877685
v -0.527792 0.100000 0.789896
v -0.527792 1.600000 0.789896
v -0.671752 0.100000 0.671751
v -0.671752 1.600000 0.671751
v -0.789896 0.100000 0.527791
v -0.789896 1.600000 0.527791
v -0.877686 0.100000 0.363549
v -0.877686 1.600000 0.363549
v -0.931746 0.100000 0.185335
v -0.931746 1.600000 0.185335
v -0.950000 0.100000 -0.000001
v -0.950000 1.600000 -0.000001
v -0.931746 0.100000 -0.185337
v -0.931746 1.600000 -0.185337
v -0.877685 0.100000 -0.363550
v -0.877685 1.600000 -0.363550
v -0.789895 0.100000 -0.527793
v -0.789895 1.600000 -0.527793
v -0.671751 0.100000 -0.671752
v -0.671751 1.600000 -0.671752
v -0.527791 0.100000 -0.789897
v -0.527791 1.600000 -0.789897
v -0.363548 0.100000 -0.877686
v -0.363548 1.600000 -0.877686
v -0.185334 0.100000 -0.931746
v -0.185334 1.600000 -0.931746
v -0.000000 3.100000 -1.000000
v -0.195091 3.100000 -0.980785
v -0.382684 3.100000 -0.923879
v -0.555571 3.100000 -0.831469
v -0.707107 3.100000 -0.707106
v -0.831470 3.100000 -0.555570
v -0.923880 3.100000 -0.382683
v -0.980785 3.100000 -0.195089
v -0.000001 3.100000 -1.500000
v -0.292636 3.100000 -1.471178
v -0.574026 3.100000 -1.385819
v -0.833356 3.100000 -1.247204
v -1.060661 3.100000 -1.060659
v -1.247205 3.100000 -0.833354
v -1.385820 3.100000 -0.574024
v -1.471178 3.100000 -0.292634
v -0.000000 3.100000 -1.000000
v -0.195091 3.100000 -0.980785
v -0.382684 3.100000 -0.923879
v -0.555571 3.100000 -0.831469
v -0.707107 3.100000 -0.707106
v -0.831470 3.100000 -0.555570
v -0.923880 3.100000 -0.382683
v -0.980785 3.100000 -0.195089
v -0.000001 3.100000 -1.500000
v -0.292636 3.100000 -1.471178
v -0.574026 3.100000 -1.385819
v -0.833356 3.100000 -1.247204
v -1.060661 3.100000 -1.060659
v -1.247205 3.100000 -0.833354
v -1.385820 3.100000 -0.574024
v -1.471178 3.100000 -0.292634
v -0.000000 1.600283 -1.000000
v -0.195091 1.600283 -0.980785
v -0.382684 1.600283 -0.923879
v -0.555571 1.600283 -0.831469
v -0.707107 1.600283 -0.707106
v -0.831470 1.600283 -0.555570
v -0.923880 1.600283 -0.382683
v -0.980785 1.600283 -0.195089
v -0.000000 1.600283 -1.500000
v -0.292636 1.600283 -1.471178
v -0.574026 1.600283 -1.385819
v -0.833356 1.600283 -1.247204
v -1.060661 1.600283 -1.060659
v -1.247205 1.600283 -0.833354
v -1.385820 1.600283 -0.574024
v -1.471178 1.600283 -0.292634
v -0.000000 3.100000 1.000000
v -0.195091 3.100000 0.980785
v -0.382684 3.100000 0.923879
v -0.555571 3.100000 0.831469
v -0.707107 3.100000 0.707106
v -0.831470 3.100000 0.555570
v -0.923880 3.100000 0.382683
v -0.980785 3.100000 0.195090
v -1.000000 3.100000 0.000000
v -0.000000 3.100000 1.500000
v -0.292636 3.100000 1.471178
v -0.574026 3.100000 1.385819
v -0.833356 3.100000 1.247204
v -1.060661 3.100000 1.060660
v -1.247205 3.100000 0.833355
v -1.385820 3.100000 0.574024
v -1.471178 3.100000 0.292634
v -1.500000 3.100000 0.000000
v -0.000000 3.100000 1.000000
v -0.195091 3.100000 0.980785
v -0.382684 3.100000 0.923879
v -0.555571 3.100000 0.831469
v -0.707107 3.100000 0.707106
v -0.831470 3.100000 0.555570
v -0.923880 3.100000 0.382683
v -0.980785 3.100000 0.195090
v -1.000000 3.100000 0.000000
v -0.000000 3.100000 1.500000
v -0.292636 3.100000 1.471178
v -0.574026 3.100000 1.385819
v -0.833356 3.100000 1.247204
v -1.060661 3.100000 1.060660
v -1.247205 3.100000 0.833355
v -1.385820 3.100000 0.574024
v -1.471178 3.100000 0.292634
v -1.500000 3.100000 0.000000
v -0.000000 1.600283 1.000000
v -0.195091 1.600283 0.980785
v -0.382684 1.600283 0.923879
v -0.555571 1.600283 0.831469
v -0.707107 1.600283 0.707106
v -0.831470 1.600283 0.555570
v -0.923880 1.600283 0.382683
v -0.980785 1.600283 0.195090
v -1.000000 1.600283 0.000000
v -0.000000 1.600283 1.500000
v -0.292636 1.600283 1.471178
v -0.574026 1.600283 1.385819
v -0.833356 1.600283 1.247204
v -1.060661 1.600283 1.060660
v -1.247205 1.600283 0.833355
v -1.385820 1.600283 0.574024
v -1.471178 1.600283 0.292634
v -1.500000 1.600283 0.000000
v -0.000001 3.250000 -1.500000
v -0.292636 3.250000 -1.471178
v -0.574026 3.250000 -1.385819
v -0.833356 3.250000 -1.247204
v -1.060661 3.250000 -1.060659
v -1.247205 3.250000 -0.833354
v -1.385820 3.250000 -0.574024
v -1.471178 3.250000 -0.292634
v -0.000000 3.250000 -1.000000
v -0.195091 3.250000 -0.980785
v -0.382684 3.250000 -0.923879
v -0.555571 3.250000 -0.831469
v -0.707107 3.250000 -0.707106
v -0.831470 3.250000 -0.555570
v -0.923880 3.250000 -0.382683
v -0.980785 3.250000 -0.195089
v -0.000001 3.250000 -1.500000
v -0.292636 3.250000 -1.471178
v -0.574026 3.250000 -1.385819
v -0.833356 3.250000 -1.247204
v -1.060661 3.250000 -1.060659
v -1.247205 3.250000 -0.833354
v -1.385820 3.250000 -0.574024
v -1.471178 3.250000 -0.292634
v -0.000000 3.100028 -1.000000
v -0.195091 3.100028 -0.980785
v -0.382684 3.100028 -0.923879
v -0.555571 3.100028 -0.831469
v -0.707107 3.100028 -0.707106
v -0.831470 3.100028 -0.555570
v -0.923880 3.100028 -0.382683
v -0.980785 3.100028 -0.195089
v -0.000001 3.100028 -1.500000
v -0.292636 3.100028 -1.471178
v -0.574026 3.100028 -1.385819
v -0.833356 3.100028 -1.247204
v -1.060661 3.100028 -1.060659
v -1.247205 3.100028 -0.833354
v -1.385820 3.100028 -0.574024
v -1.471178 3.100028 -0.292634
v -0.000000 3.250000 1.500000
v -0.292636 3.250000 1.471178
v -0.574026 3.250000 1.385819
v -0.833356 3.250000 1.247204
v -1.060661 3.250000 1.060660
v -1.247205 3.250000 0.833355
v -1.385820 3.250000 0.574024
v -1.471178 3.250000 0.292634
v -1.500000 3.250000 0.000000
v -0.000000 3.250000 1.000000
v -0.195091 3.250000 0.980785
v -0.382684 3.250000 0.923879
v -0.555571 3.250000 0.831469
v -0.707107 3.250000 0.707106
v -0.831470 3.250000 0.555570
v -0.923880 3.250000 0.382683
v -0.980785 3.250000 0.195090
v -1.000000 3.250000 0.000000
v -0.000000 3.250000 1.500000
v -0.292636 3.250000 1.471178
v -0.574026 3.250000 1.385819
v -0.833356 3.250000 1.247204
v -1.060661 3.250000 1.060660
v -1.247205 3.250000 0.833355
v -1.385820 3.250000 0.574024
v -1.471178 3.250000 0.292634
v -1.500000 3.250000 0.000000
v -0.000000 3.100028 1.000000
v -0.195091 3.100028 0.980785
v -0.382684 3.100028 0.923879
v -0.555571 3.100028 0.831469
v -0.707107 3.100028 0.707106
v -0.831470 3.100028 0.555570
v -0.923880 3.100028 0.382683
v -0.980785 3.100028 0.195090
v -1.000000 3.100028 0.000000
v -0.000000 3.100028 1.500000
v -0.292636 3.100028 1.471178
v -0.574026 3.100028 1.385819
v -0.833356 3.100028 1.247204
v -1.060661 3.100028 1.060660
v -1.247205 3.100028 0.833355
v -1.385820 3.100028 0.574024
v -1.471178 3.100028 0.292634
v -1.500000 3.100028 0.000000
vt 0.739778 0.938055
vt 0.670019 0.944879
vt 0.670377 0.937826
vt 0.740101 0.944879
vt 0.670019 0.951749
vt 0.740101 0.951748
vt 0.670019 0.958618
vt 0.740101 0.958618
vt 0.670019 0.965487
vt 0.740101 0.965487
vt 0.670019 0.972357
vt 0.740101 0.972356
vt 0.670019 0.979226
vt 0.740101 0.979226
vt 0.670019 0.986095
vt 0.740101 0.986095
vt 0.670019 0.992964
vt 0.781210 0.972555
vt 0.754924 0.967231
vt 0.685734 0.852934
vt 0.691879 0.849735
vt 0.692317 0.869332
vt 0.598945 0.944659
vt 0.627325 0.973215
vt 0.989901 0.923838
vt 0.979509 0.853157
vt 0.989901 0.853157
vt 0.979509 0.923838
vt 0.969117 0.853157
vt 0.969117 0.923838
vt 0.958725 0.853157
vt 0.958725 0.923838
vt 0.948333 0.853157
vt 0.948333 0.923838
vt 0.937941 0.853157
vt 0.937941 0.923838
vt 0.927549 0.853157
vt 0.927549 0.923838
vt 0.917157 0.853157
vt 0.917157 0.923838
vt 0.906765 0.853157
vt 0.976037 0.024788
vt 0.989067 0.076551
vt 0.976121 0.076572
vt 0.848355 0.812364
vt 0.853662 0.816817
vt 0.843685 0.831402
vt 0.478202 0.004466
vt 0.488595 0.534455
vt 0.478202 0.534455
vt 0.965699 0.556472
vt 0.974045 0.556467
vt 0.957353 0.556476
vt 0.966869 0.076568
vt 0.949008 0.556480
vt 0.958274 0.076567
vt 0.940663 0.556485
vt 0.949842 0.076569
vt 0.932317 0.556491
vt 0.941453 0.076572
vt 0.923971 0.556496
vt 0.933075 0.076576
vt 0.915631 0.556503
vt 0.924702 0.076577
vt 0.907291 0.556473
vt 0.916328 0.076566
vt 0.989992 0.556439
vt 0.488593 0.004466
vt 0.498988 0.534455
vt 0.498985 0.004466
vt 0.509381 0.534455
vt 0.509377 0.004466
vt 0.519775 0.534454
vt 0.519768 0.004466
vt 0.530168 0.534454
vt 0.530160 0.004466
vt 0.540561 0.534454
vt 0.540551 0.004466
vt 0.550954 0.534454
vt 0.550943 0.534454
vt 0.561347 0.004465
vt 0.550954 0.004465
vt 0.670065 0.930770
vt 0.670111 0.923901
vt 0.740146 0.931232
vt 0.670156 0.917032
vt 0.740191 0.924363
vt 0.670201 0.910163
vt 0.740237 0.917494
vt 0.670246 0.903294
vt 0.740282 0.910625
vt 0.670292 0.896425
vt 0.740327 0.903755
vt 0.670337 0.889555
vt 0.740372 0.896886
vt 0.670382 0.882686
vt 0.740418 0.890017
vt 0.809536 0.938284
vt 0.742161 0.924664
vt 0.788004 0.905842
vt 0.652613 0.849307
vt 0.658687 0.852639
vt 0.651747 0.868890
vt 0.668027 0.923966
vt 0.598271 0.937588
vt 0.634631 0.901482
vt 0.834021 0.853157
vt 0.823629 0.923838
vt 0.823629 0.853157
vt 0.844413 0.853157
vt 0.834021 0.923838
vt 0.854805 0.853157
vt 0.844413 0.923838
vt 0.865197 0.853157
vt 0.854805 0.923838
vt 0.875589 0.853157
vt 0.865197 0.923838
vt 0.885981 0.853157
vt 0.875589 0.923838
vt 0.896373 0.853157
vt 0.885981 0.923838
vt 0.896373 0.923838
vt 0.826793 0.076591
vt 0.839559 0.024662
vt 0.839763 0.076541
vt 0.902584 0.832044
vt 0.892928 0.817246
vt 0.898331 0.812909
vt 0.634088 0.534453
vt 0.644480 0.004464
vt 0.644480 0.534453
vt 0.849031 0.076578
vt 0.840548 0.556503
vt 0.848871 0.556498
vt 0.857614 0.076611
vt 0.857217 0.556489
vt 0.866035 0.076571
vt 0.865586 0.556479
vt 0.874419 0.076548
vt 0.873931 0.556470
vt 0.882810 0.076515
vt 0.882276 0.556460
vt 0.891192 0.076568
vt 0.890600 0.556452
vt 0.899551 0.076535
vt 0.898969 0.556444
vt 0.907939 0.076517
vt 0.824558 0.556428
vt 0.623697 0.534453
vt 0.634087 0.004464
vt 0.613305 0.534453
vt 0.623694 0.004464
vt 0.602914 0.534453
vt 0.613300 0.004464
vt 0.592522 0.534453
vt 0.602907 0.004464
vt 0.582130 0.534453
vt 0.592514 0.004464
vt 0.571739 0.534454
vt 0.582121 0.004465
vt 0.561347 0.534454
vt 0.571728 0.004465
vt 0.810731 0.766262
vt 0.803803 0.660240
vt 0.810731 0.660240
vt 0.803803 0.766262
vt 0.796875 0.660240
vt 0.796875 0.766262
vt 0.789947 0.660240
vt 0.789947 0.766262
vt 0.783019 0.660240
vt 0.783019 0.766262
vt 0.776091 0.660240
vt 0.776091 0.766262
vt 0.769163 0.660240
vt 0.769163 0.766262
vt 0.762235 0.660240
vt 0.762235 0.766262
vt 0.755307 0.660240
vt 0.755307 0.766262
vt 0.748379 0.660239
vt 0.970075 0.766261
vt 0.963145 0.660239
vt 0.970073 0.660239
vt 0.963147 0.766261
vt 0.956218 0.660239
vt 0.956219 0.766261
vt 0.949290 0.660239
vt 0.949291 0.766261
vt 0.942362 0.660239
vt 0.942363 0.766261
vt 0.935434 0.660239
vt 0.935435 0.766261
vt 0.928506 0.660239
vt 0.928507 0.766261
vt 0.921578 0.660239
vt 0.921579 0.766261
vt 0.914650 0.660239
vt 0.914651 0.766261
vt 0.907722 0.660239
vt 0.907723 0.766261
vt 0.900794 0.660239
vt 0.900795 0.766261
vt 0.893866 0.660239
vt 0.893867 0.766262
vt 0.886938 0.660239
vt 0.886939 0.766262
vt 0.880010 0.660239
vt 0.880011 0.766262
vt 0.873082 0.660239
vt 0.873083 0.766262
vt 0.866154 0.660239
vt 0.866155 0.766262
vt 0.859226 0.660239
vt 0.859227 0.766262
vt 0.852298 0.660240
vt 0.852299 0.766262
vt 0.845370 0.660240
vt 0.845371 0.766262
vt 0.838443 0.660240
vt 0.838443 0.766262
vt 0.831515 0.660240
vt 0.831515 0.766262
vt 0.824587 0.660240
vt 0.970076 0.836602
vt 0.931441 0.804896
vt 0.824587 0.766262
vt 0.817659 0.660240
vt 0.817659 0.766262
vt 0.983269 0.656236
vt 0.935442 0.641728
vt 0.949949 0.593901
vt 0.560581 0.983053
vt 0.567562 0.583130
vt 0.567562 0.983106
vt 0.553601 0.983001
vt 0.560581 0.583077
vt 0.546620 0.982948
vt 0.553601 0.583025
vt 0.539639 0.982896
vt 0.546620 0.582972
vt 0.532659 0.982843
vt 0.539640 0.582919
vt 0.525678 0.982791
vt 0.532659 0.582867
vt 0.518698 0.982738
vt 0.525679 0.582814
vt 0.511717 0.982686
vt 0.518698 0.582761
vt 0.504737 0.982633
vt 0.511718 0.582709
vt 0.497756 0.982581
vt 0.504737 0.582656
vt 0.490776 0.982528
vt 0.497757 0.582604
vt 0.483795 0.982475
vt 0.490776 0.582551
vt 0.476815 0.982423
vt 0.483796 0.582498
vt 0.469834 0.982370
vt 0.476815 0.582446
vt 0.462854 0.982318
vt 0.469835 0.582393
vt 0.455873 0.982265
vt 0.462854 0.582340
vt 0.448893 0.982213
vt 0.455874 0.582288
vt 0.441912 0.982160
vt 0.448893 0.582235
vt 0.434932 0.982108
vt 0.441912 0.582182
vt 0.427951 0.982055
vt 0.434932 0.582130
vt 0.420970 0.982003
vt 0.427951 0.582077
vt 0.413990 0.981950
vt 0.420971 0.582024
vt 0.407009 0.981898
vt 0.413990 0.581972
vt 0.400029 0.981845
vt 0.407010 0.581919
vt 0.393048 0.981793
vt 0.400029 0.581866
vt 0.386068 0.981740
vt 0.393049 0.581814
vt 0.379087 0.981687
vt 0.386068 0.581761
vt 0.372107 0.981635
vt 0.379087 0.581709
vt 0.365126 0.981582
vt 0.372107 0.581656
vt 0.581523 0.983211
vt 0.588503 0.583288
vt 0.588503 0.983264
vt 0.574542 0.983159
vt 0.581523 0.583235
vt 0.574542 0.583183
vt 0.779985 0.809473
vt 0.775588 0.814826
vt 0.760899 0.805004
vt 0.992362 0.939162
vt 0.981970 0.992164
vt 0.981970 0.939162
vt 0.633184 0.736378
vt 0.649832 0.746725
vt 0.632162 0.746719
vt 0.652527 0.733202
vt 0.650514 0.739831
vt 0.636204 0.726434
vt 0.655795 0.727093
vt 0.641106 0.717271
vt 0.660192 0.721739
vt 0.655737 0.702651
vt 0.665549 0.717346
vt 0.671660 0.714082
vt 0.664903 0.697755
vt 0.678290 0.712074
vt 0.674849 0.694742
vt 0.685185 0.711397
vt 0.971578 0.992163
vt 0.971578 0.939162
vt 0.961186 0.939162
vt 0.961186 0.992163
vt 0.950794 0.939162
vt 0.950794 0.992163
vt 0.940402 0.939162
vt 0.940402 0.992163
vt 0.930010 0.939162
vt 0.930010 0.992163
vt 0.919618 0.939162
vt 0.919618 0.992163
vt 0.909226 0.939162
vt 0.760879 0.863907
vt 0.775574 0.854095
vt 0.779968 0.859452
vt 0.826090 0.939163
vt 0.836482 0.992164
vt 0.826090 0.992164
vt 0.633177 0.757062
vt 0.652518 0.760251
vt 0.650509 0.753620
vt 0.641086 0.776174
vt 0.636190 0.767007
vt 0.660175 0.771719
vt 0.655782 0.766362
vt 0.665529 0.776116
vt 0.647676 0.784209
vt 0.664870 0.795706
vt 0.655706 0.790805
vt 0.678266 0.781397
vt 0.671637 0.779383
vt 0.685161 0.782078
vt 0.674813 0.798726
vt 0.836482 0.939162
vt 0.846874 0.992163
vt 0.857266 0.939162
vt 0.846874 0.939162
vt 0.867658 0.939162
vt 0.857266 0.992163
vt 0.878050 0.939162
vt 0.867658 0.992163
vt 0.888442 0.939162
vt 0.878050 0.992163
vt 0.898834 0.939162
vt 0.888442 0.992163
vt 0.898834 0.992163
vt 0.685155 0.799749
vt 0.738162 0.782097
vt 0.738156 0.799767
vt 0.738186 0.711415
vt 0.685191 0.693727
vt 0.738192 0.693745
vt 0.740101 0.992964
vt 0.742072 0.951460
vt 0.808839 0.945118
vt 0.806822 0.951685
vt 0.803562 0.957732
vt 0.799186 0.963027
vt 0.793861 0.967367
vt 0.787791 0.970584
vt 0.774372 0.973204
vt 0.767538 0.972507
vt 0.760971 0.970490
vt 0.749629 0.962855
vt 0.745290 0.957529
vt 0.707151 0.827411
vt 0.707905 0.820524
vt 0.725574 0.820716
vt 0.724443 0.831047
vt 0.721318 0.840958
vt 0.705068 0.834018
vt 0.716320 0.850069
vt 0.701735 0.840092
vt 0.709640 0.858029
vt 0.697282 0.845399
vt 0.701535 0.864534
vt 0.682341 0.872240
vt 0.671988 0.873146
vt 0.679083 0.854873
vt 0.672181 0.855477
vt 0.667936 0.951670
vt 0.654541 0.967890
vt 0.664568 0.957924
vt 0.660045 0.963401
vt 0.648266 0.971218
vt 0.641463 0.973259
vt 0.634392 0.973934
vt 0.620535 0.971133
vt 0.604315 0.957737
vt 0.614281 0.967765
vt 0.608804 0.963242
vt 0.600986 0.951463
vt 0.906765 0.923838
vt 0.988983 0.024767
vt 0.873230 0.822987
vt 0.873037 0.840656
vt 0.862707 0.839525
vt 0.852796 0.836400
vt 0.866343 0.822233
vt 0.859736 0.820150
vt 0.835724 0.824722
vt 0.829220 0.816617
vt 0.844018 0.806961
vt 0.824421 0.807400
vt 0.840819 0.800816
vt 0.821513 0.797423
vt 0.838881 0.794165
vt 0.820608 0.787070
vt 0.838277 0.787263
vt 0.966870 0.076723
vt 0.976122 0.076755
vt 0.958275 0.076716
vt 0.949844 0.076715
vt 0.941454 0.076718
vt 0.933076 0.076722
vt 0.924703 0.076722
vt 0.916329 0.076712
vt 0.907938 0.076663
vt 0.989069 0.076776
vt 0.550943 0.004465
vt 0.561334 0.534454
vt 0.740463 0.883148
vt 0.745418 0.918616
vt 0.749792 0.913320
vt 0.755116 0.908978
vt 0.761184 0.905759
vt 0.767764 0.903785
vt 0.774603 0.903133
vt 0.781437 0.903828
vt 0.794053 0.909099
vt 0.806910 0.924866
vt 0.799349 0.913474
vt 0.803691 0.918797
vt 0.808884 0.931446
vt 0.619559 0.819560
vt 0.637228 0.819753
vt 0.637832 0.826654
vt 0.620464 0.829912
vt 0.639770 0.833306
vt 0.623372 0.839889
vt 0.634675 0.857212
vt 0.628171 0.849107
vt 0.647306 0.844854
vt 0.642969 0.839451
vt 0.642636 0.863891
vt 0.661658 0.872015
vt 0.665294 0.854723
vt 0.598992 0.930522
vt 0.608973 0.912005
vt 0.601078 0.923732
vt 0.604448 0.917480
vt 0.614479 0.907518
vt 0.620755 0.904192
vt 0.627560 0.902153
vt 0.641697 0.902203
vt 0.660214 0.912184
vt 0.648487 0.904288
vt 0.654739 0.907659
vt 0.664701 0.917690
vt 0.826590 0.024712
vt 0.883389 0.839751
vt 0.880131 0.822383
vt 0.893366 0.836843
vt 0.886783 0.820445
vt 0.917368 0.817579
vt 0.910689 0.825540
vt 0.902784 0.807602
vt 0.925492 0.798557
vt 0.922367 0.808468
vt 0.908200 0.794921
vt 0.906116 0.801528
vt 0.908954 0.788034
vt 0.926623 0.788227
vt 0.839763 0.076724
vt 0.849032 0.076733
vt 0.857614 0.076759
vt 0.866034 0.076718
vt 0.874418 0.076694
vt 0.882810 0.076661
vt 0.891192 0.076713
vt 0.899550 0.076681
vt 0.826792 0.076816
vt 0.561334 0.004465
vt 0.748379 0.766262
vt 1.001782 0.797967
vt 1.001782 0.804895
vt 1.000430 0.811690
vt 0.997779 0.818091
vt 0.993930 0.823851
vt 0.989032 0.828750
vt 0.983271 0.832599
vt 0.976871 0.835251
vt 0.963148 0.836603
vt 0.956353 0.835251
vt 0.949952 0.832600
vt 0.944192 0.828751
vt 0.939293 0.823852
vt 0.935444 0.818092
vt 0.932792 0.811691
vt 0.931440 0.797968
vt 0.932792 0.791173
vt 0.935443 0.784773
vt 0.939292 0.779012
vt 0.944191 0.774113
vt 0.949951 0.770264
vt 0.956352 0.767613
vt 0.976870 0.767612
vt 0.983270 0.770263
vt 0.989031 0.774112
vt 0.993930 0.779011
vt 0.997779 0.784771
vt 1.000430 0.791172
vt 0.997776 0.608409
vt 1.000427 0.614809
vt 1.001779 0.621604
vt 1.001779 0.628532
vt 1.000428 0.635327
vt 0.997777 0.641727
vt 0.993928 0.647488
vt 0.989029 0.652387
vt 0.976868 0.658887
vt 0.956351 0.658887
vt 0.949950 0.656236
vt 0.944190 0.652387
vt 0.939291 0.647488
vt 0.932790 0.635327
vt 0.931439 0.628533
vt 0.931439 0.621605
vt 0.932790 0.614810
vt 0.935441 0.608409
vt 0.939290 0.602649
vt 0.944189 0.597750
vt 0.956350 0.591250
vt 0.963145 0.589898
vt 0.970073 0.589898
vt 0.976867 0.591250
vt 0.983268 0.593901
vt 0.989028 0.597750
vt 0.993927 0.602648
vt 0.365126 0.581603
vt 0.769625 0.834459
vt 0.751955 0.834453
vt 0.752977 0.824111
vt 0.755997 0.814168
vt 0.770307 0.827564
vt 0.772320 0.820935
vt 0.767494 0.796974
vt 0.775530 0.790384
vt 0.785342 0.805079
vt 0.784696 0.785488
vt 0.791453 0.801816
vt 0.794642 0.782475
vt 0.798083 0.799807
vt 0.804984 0.781460
vt 0.804978 0.799130
vt 0.992362 0.992164
vt 0.647701 0.709240
vt 0.909226 0.992163
vt 0.752970 0.844795
vt 0.770302 0.841354
vt 0.755983 0.854740
vt 0.772311 0.847984
vt 0.775499 0.878538
vt 0.767469 0.871942
vt 0.785321 0.863849
vt 0.794606 0.886460
vt 0.784662 0.883440
vt 0.798059 0.869130
vt 0.791430 0.867117
vt 0.804954 0.869812
vt 0.804948 0.887482
vt 0.070081 0.444628
vt 0.064241 0.000280
vt 0.071996 0.000280
vt 0.062325 0.444628
vt 0.056485 0.000280
vt 0.054570 0.444628
vt 0.048729 0.000280
vt 0.046814 0.444628
vt 0.040974 0.000280
vt 0.039058 0.444628
vt 0.033218 0.000280
vt 0.031302 0.444628
vt 0.025462 0.000280
vt 0.023547 0.444628
vt 0.017707 0.000280
vt 0.015791 0.444628
vt 0.009951 0.000280
vt 0.008035 0.444628
vt 0.002195 0.000280
vt 0.248462 0.444628
vt 0.242622 0.000280
vt 0.250377 0.000280
vt 0.240706 0.444628
vt 0.234866 0.000280
vt 0.232950 0.444628
vt 0.227110 0.000280
vt 0.225195 0.444628
vt 0.219355 0.000280
vt 0.217439 0.444628
vt 0.211599 0.000280
vt 0.209683 0.444628
vt 0.203843 0.000280
vt 0.201928 0.444628
vt 0.196087 0.000280
vt 0.194172 0.444628
vt 0.188332 0.000280
vt 0.186416 0.444628
vt 0.180576 0.000280
vt 0.178661 0.444628
vt 0.172820 0.000280
vt 0.170905 0.444628
vt 0.165065 0.000280
vt 0.163149 0.444628
vt 0.157309 0.000280
vt 0.155394 0.444628
vt 0.149553 0.000280
vt 0.147638 0.444628
vt 0.141798 0.000280
vt 0.139882 0.444628
vt 0.134042 0.000280
vt 0.132126 0.444628
vt 0.126286 0.000280
vt 0.124371 0.444628
vt 0.118531 0.000280
vt 0.116615 0.444628
vt 0.110775 0.000280
vt 0.108859 0.444628
vt 0.103019 0.000280
vt 0.101104 0.444628
vt 0.095264 0.000280
vt 0.093348 0.444628
vt 0.087508 0.000280
vt 0.248462 0.523373
vt 0.205211 0.487879
vt 0.085592 0.444628
vt 0.079752 0.000280
vt 0.077837 0.444628
vt 0.000280 0.444628
vt 0.283956 0.480123
vt 0.283956 0.487879
vt 0.282443 0.495485
vt 0.279475 0.502651
vt 0.275167 0.509099
vt 0.269682 0.514583
vt 0.263234 0.518892
vt 0.256068 0.521860
vt 0.240706 0.523373
vt 0.233099 0.521860
vt 0.225934 0.518892
vt 0.219485 0.514583
vt 0.214001 0.509099
vt 0.209692 0.502651
vt 0.206724 0.495485
vt 0.205211 0.480123
vt 0.206724 0.472516
vt 0.209692 0.465351
vt 0.214001 0.458902
vt 0.219485 0.453418
vt 0.225934 0.449109
vt 0.233099 0.446141
vt 0.256068 0.446141
vt 0.263234 0.449109
vt 0.269682 0.453418
vt 0.275167 0.458902
vt 0.279475 0.465351
vt 0.282443 0.472516
vt 0.467001 0.004930
vt 0.456612 0.534929
vt 0.456608 0.004930
vt 0.144613 0.454745
vt 0.152873 0.454786
vt 0.151546 0.929785
vt 0.136359 0.454703
vt 0.143270 0.929745
vt 0.128104 0.454696
vt 0.134982 0.929710
vt 0.119845 0.454653
vt 0.126695 0.929689
vt 0.111585 0.454609
vt 0.118408 0.929653
vt 0.103325 0.454565
vt 0.110120 0.929612
vt 0.095071 0.454520
vt 0.101834 0.929573
vt 0.085242 0.929554
vt 0.086817 0.454512
vt 0.151545 0.929917
vt 0.168705 0.454831
vt 0.446216 0.004930
vt 0.446220 0.534929
vt 0.435824 0.004930
vt 0.435828 0.534929
vt 0.425433 0.004930
vt 0.425436 0.534929
vt 0.415041 0.004931
vt 0.415045 0.534929
vt 0.404647 0.004931
vt 0.404653 0.534929
vt 0.394254 0.004931
vt 0.394261 0.534930
vt 0.383861 0.004931
vt 0.311118 0.004932
vt 0.300728 0.534930
vt 0.300726 0.004932
vt 0.026926 0.929197
vt 0.020757 0.454174
vt 0.028995 0.454217
vt 0.035433 0.929291
vt 0.037278 0.454265
vt 0.043781 0.929284
vt 0.045516 0.454313
vt 0.052070 0.929362
vt 0.053799 0.454361
vt 0.060372 0.929439
vt 0.062059 0.454408
vt 0.068667 0.929426
vt 0.070296 0.454455
vt 0.076941 0.929497
vt 0.078579 0.454502
vt 0.004930 0.454174
vt 0.004930 0.929108
vt 0.321514 0.534930
vt 0.311122 0.534930
vt 0.331902 0.004931
vt 0.321510 0.004932
vt 0.342293 0.004931
vt 0.331905 0.534930
vt 0.352685 0.004931
vt 0.342297 0.534930
vt 0.363077 0.004931
vt 0.352689 0.534930
vt 0.373469 0.004931
vt 0.363082 0.534930
vt 0.383869 0.534930
vt 0.373476 0.534930
vt 0.467003 0.534929
vt 0.143272 0.929601
vt 0.151548 0.929641
vt 0.134984 0.929566
vt 0.126697 0.929545
vt 0.118410 0.929508
vt 0.110122 0.929468
vt 0.101835 0.929429
vt 0.093546 0.929544
vt 0.093547 0.929399
vt 0.085242 0.929409
vt 0.167375 0.929962
vt 0.167379 0.929685
vt 0.017762 0.929210
vt 0.017763 0.929029
vt 0.026927 0.929044
vt 0.035434 0.929144
vt 0.043782 0.929139
vt 0.052070 0.929218
vt 0.060372 0.929294
vt 0.068668 0.929282
vt 0.076941 0.929353
vt 0.004930 0.928886
vn 0.9952 0.0000 0.0980
vn 0.9569 0.0000 0.2903
vn 0.8819 0.0000 0.4714
vn 0.7730 0.0000 0.6344
vn 0.6344 0.0000 0.7730
vn 0.4714 0.0000 0.8819
vn 0.2903 0.0000 0.9569
vn 0.0980 0.0000 0.9952
vn 0.0000 1.0000 0.0000
vn 0.0000 -1.0000 0.0000
vn -0.0980 0.0000 0.9952
vn -0.2903 0.0000 0.9569
vn -0.4714 0.0000 0.8819
vn -0.6344 0.0000 0.7730
vn -0.7730 0.0000 0.6344
vn -0.8819 0.0000 0.4714
vn -0.9569 0.0000 0.2903
vn -0.9952 0.0000 0.0980
vn -1.0000 0.0000 -0.0000
vn 0.0980 0.0000 -0.9952
vn 0.2903 0.0000 -0.9569
vn 0.4714 0.0000 -0.8819
vn 0.6344 0.0000 -0.7730
vn 0.7730 0.0000 -0.6344
vn 0.8819 0.0000 -0.4714
vn 0.9569 0.0000 -0.2903
vn 0.9952 0.0000 -0.0980
vn -0.0980 0.0000 -0.9952
vn -0.2903 0.0000 -0.9569
vn -0.4714 0.0000 -0.8819
vn -0.6344 0.0000 -0.7730
vn -0.7730 0.0000 -0.6344
vn -0.8819 0.0000 -0.4714
vn -0.9569 0.0000 -0.2903
vn -0.9952 0.0000 -0.0980
vn 0.6151 -0.2445 0.7496
vn 0.4571 -0.2445 0.8552
vn 0.2815 -0.2445 0.9279
vn 0.0950 -0.2445 0.9650
vn -0.0950 -0.2445 0.9650
vn -0.2815 -0.2445 0.9279
vn -0.4571 -0.2445 0.8552
vn -0.6151 -0.2445 0.7496
vn -0.7496 -0.2445 0.6151
vn -0.8552 -0.2445 0.4571
vn -0.9279 -0.2445 0.2815
vn -0.9650 -0.2445 0.0950
vn -0.9650 -0.2445 -0.0950
vn -0.9279 -0.2445 -0.2815
vn -0.8552 -0.2445 -0.4571
vn -0.7496 -0.2445 -0.6151
vn -0.6151 -0.2445 -0.7496
vn -0.4571 -0.2445 -0.8552
vn -0.2815 -0.2445 -0.9279
vn -0.0950 -0.2445 -0.9650
vn 0.0950 -0.2445 -0.9650
vn 0.2815 -0.2445 -0.9279
vn 0.4571 -0.2445 -0.8552
vn 0.6151 -0.2445 -0.7496
vn 0.7496 -0.2445 -0.6151
vn 0.8552 -0.2445 -0.4571
vn 0.9279 -0.2445 -0.2815
vn 0.9650 -0.2445 -0.0950
vn 0.9650 -0.2445 0.0950
vn 0.9279 -0.2445 0.2815
vn 0.8552 -0.2445 0.4571
vn 0.7496 -0.2445 0.6151
vn 0.0000 0.0000 1.0000
usemtl black
s off
f 81/1/1 1/2/1 80/3/1
f 2/4/2 3/5/2 1/2/2
f 4/6/3 5/7/3 3/5/3
f 6/8/4 7/9/4 5/7/4
f 8/10/5 9/11/5 7/9/5
f 10/12/6 11/13/6 9/11/6
f 12/14/7 13/15/7 11/13/7
f 14/16/8 15/17/8 13/15/8
f 81/1/9 18/18/9 10/19/9
f 27/20/10 25/21/10 44/22/10
f 29/23/10 1/2/10 17/24/10
f 33/25/11 34/26/11 32/27/11
f 35/28/12 36/29/12 34/26/12
f 37/30/13 38/31/13 36/29/13
f 39/32/14 40/33/14 38/31/14
f 41/34/15 42/35/15 40/33/15
f 43/36/16 44/37/16 42/35/16
f 45/38/17 46/39/17 44/37/17
f 47/40/18 131/41/18 46/39/18
f 15/42/19 33/43/19 16/44/19
f 68/45/9 69/46/9 77/47/9
f 56/48/20 73/49/20 72/50/20
f 65/51/20 64/52/20 16/44/20
f 66/53/21 65/51/21 18/54/21
f 67/55/22 66/53/22 20/56/22
f 68/57/23 67/55/23 22/58/23
f 69/59/24 68/57/24 24/60/24
f 70/61/25 69/59/25 26/62/25
f 71/63/26 70/61/26 28/64/26
f 159/65/27 71/63/27 30/66/27
f 16/44/19 72/67/19 64/52/19
f 57/68/21 74/69/21 73/49/21
f 58/70/22 75/71/22 74/69/22
f 59/72/23 76/73/23 75/71/23
f 60/74/24 77/75/24 76/73/24
f 61/76/25 78/77/25 77/75/25
f 62/78/26 79/79/26 78/77/26
f 63/80/27 168/81/27 79/82/27
f 82/83/27 81/1/27 80/3/27
f 84/84/26 83/85/26 82/83/26
f 86/86/25 85/87/25 84/84/25
f 88/88/24 87/89/24 86/86/24
f 90/90/23 89/91/23 88/88/23
f 92/92/22 91/93/22 90/90/22
f 94/94/21 93/95/21 92/92/21
f 96/96/20 95/97/20 94/94/20
f 113/98/9 85/99/9 101/100/9
f 106/101/10 108/102/10 127/103/10
f 84/104/10 112/105/10 96/106/10
f 117/107/28 116/108/28 115/109/28
f 119/110/29 118/111/29 117/107/29
f 121/112/30 120/113/30 119/110/30
f 123/114/31 122/115/31 121/112/31
f 125/116/32 124/117/32 123/114/32
f 127/118/33 126/119/33 125/116/33
f 129/120/34 128/121/34 127/118/34
f 131/41/35 130/122/35 129/120/35
f 116/123/19 96/124/19 97/125/19
f 165/126/9 156/127/9 155/128/9
f 161/129/8 142/130/8 160/131/8
f 99/132/8 151/133/8 152/134/8
f 101/135/7 152/134/7 153/136/7
f 103/137/6 153/136/6 154/138/6
f 105/139/5 154/138/5 155/140/5
f 107/141/4 155/140/4 156/142/4
f 109/143/3 156/142/3 157/144/3
f 111/145/2 157/144/2 158/146/2
f 113/147/1 158/146/1 159/65/1
f 151/133/19 160/148/19 116/123/19
f 162/149/7 143/150/7 161/129/7
f 163/151/6 144/152/6 162/149/6
f 164/153/5 145/154/5 163/151/5
f 165/155/4 146/156/4 164/153/4
f 166/157/3 147/158/3 165/155/3
f 167/159/2 148/160/2 166/157/2
f 168/161/1 149/162/1 167/159/1
f 170/163/20 171/164/20 169/165/20
f 172/166/21 173/167/21 171/164/21
f 174/168/22 175/169/22 173/167/22
f 176/170/23 177/171/23 175/169/23
f 178/172/24 179/173/24 177/171/24
f 180/174/25 181/175/25 179/173/25
f 182/176/26 183/177/26 181/175/26
f 184/178/27 185/179/27 183/177/27
f 186/180/1 187/181/1 185/179/1
f 188/182/2 189/183/2 187/184/2
f 190/185/3 191/186/3 189/183/3
f 192/187/4 193/188/4 191/186/4
f 194/189/5 195/190/5 193/188/5
f 196/191/6 197/192/6 195/190/6
f 198/193/7 199/194/7 197/192/7
f 200/195/8 201/196/8 199/194/8
f 202/197/11 203/198/11 201/196/11
f 204/199/12 205/200/12 203/198/12
f 206/201/13 207/202/13 205/200/13
f 208/203/14 209/204/14 207/202/14
f 210/205/15 211/206/15 209/204/15
f 212/207/16 213/208/16 211/206/16
f 214/209/17 215/210/17 213/208/17
f 216/211/18 217/212/18 215/210/18
f 218/213/35 219/214/35 217/212/35
f 220/215/34 221/216/34 219/214/34
f 222/217/33 223/218/33 221/216/33
f 224/219/32 225/220/32 223/218/32
f 226/221/31 227/222/31 225/220/31
f 228/223/30 229/224/30 227/222/30
f 222/225/9 206/226/9 190/185/9
f 230/227/29 231/228/29 229/224/29
f 232/229/28 169/165/28 231/228/28
f 183/230/10 199/231/10 215/232/10
f 246/233/36 277/234/36 245/235/36
f 247/236/37 278/237/37 246/233/37
f 248/238/38 279/239/38 247/236/38
f 249/240/39 280/241/39 248/238/39
f 250/242/40 281/243/40 249/240/40
f 251/244/41 282/245/41 250/242/41
f 252/246/42 283/247/42 251/244/42
f 253/248/43 284/249/43 252/246/43
f 254/250/44 285/251/44 253/248/44
f 255/252/45 286/253/45 254/250/45
f 256/254/46 287/255/46 255/252/46
f 257/256/47 288/257/47 256/254/47
f 258/258/48 289/259/48 257/256/48
f 259/260/49 290/261/49 258/258/49
f 260/262/50 291/263/50 259/260/50
f 261/264/51 292/265/51 260/262/51
f 262/266/52 293/267/52 261/264/52
f 263/268/53 294/269/53 262/266/53
f 264/270/54 295/271/54 263/268/54
f 233/272/55 296/273/55 264/270/55
f 234/274/56 265/275/56 233/272/56
f 235/276/57 266/277/57 234/274/57
f 236/278/58 267/279/58 235/276/58
f 237/280/59 268/281/59 236/278/59
f 238/282/60 269/283/60 237/280/60
f 239/284/61 270/285/61 238/282/61
f 240/286/62 271/287/62 239/284/62
f 241/288/63 272/289/63 240/286/63
f 242/290/64 273/291/64 241/288/64
f 243/292/65 274/293/65 242/294/65
f 244/295/66 275/296/66 243/292/66
f 245/235/67 276/297/67 244/295/67
f 491/298/10 492/299/10 500/300/10
f 495/301/8 480/302/8 496/303/8
f 486/304/10 520/305/10 529/306/10
f 486/304/10 477/307/10 478/308/10
f 485/309/10 476/310/10 477/307/10
f 484/311/10 475/312/10 476/310/10
f 475/312/10 482/313/10 474/314/10
f 482/313/10 473/315/10 474/314/10
f 481/316/10 472/317/10 473/315/10
f 480/318/10 471/319/10 472/317/10
f 496/303/7 481/320/7 497/321/7
f 481/320/6 498/322/6 497/321/6
f 482/323/5 499/324/5 498/322/5
f 483/325/4 500/326/4 499/324/4
f 484/327/3 501/328/3 500/326/3
f 485/329/2 502/330/2 501/328/2
f 486/331/1 547/332/1 502/330/1
f 544/333/10 535/334/10 534/335/10
f 539/336/20 522/337/20 521/338/20
f 520/305/10 528/339/10 529/306/10
f 518/340/10 528/339/10 519/341/10
f 518/340/10 526/342/10 527/343/10
f 516/344/10 526/342/10 517/345/10
f 515/346/10 525/347/10 516/344/10
f 515/346/10 523/348/10 524/349/10
f 513/350/10 523/348/10 514/351/10
f 512/352/10 522/353/10 513/350/10
f 540/354/21 523/355/21 522/337/21
f 542/356/22 523/355/22 541/357/22
f 543/358/23 524/359/23 542/356/23
f 544/360/24 525/361/24 543/358/24
f 545/362/25 526/363/25 544/360/25
f 546/364/26 527/365/26 545/362/26
f 547/332/27 528/366/27 546/364/27
f 521/367/19 530/368/19 539/369/19
f 487/370/19 479/371/19 495/372/19
f 81/1/1 2/4/1 1/2/1
f 2/4/2 4/6/2 3/5/2
f 4/6/3 6/8/3 5/7/3
f 6/8/4 8/10/4 7/9/4
f 8/10/5 10/12/5 9/11/5
f 10/12/6 12/14/6 11/13/6
f 12/14/7 14/16/7 13/15/7
f 14/16/8 16/373/8 15/17/8
f 4/374/9 2/4/9 81/1/9
f 81/1/9 113/98/9 30/375/9
f 30/375/9 28/376/9 26/377/9
f 26/377/9 24/378/9 22/379/9
f 22/379/9 20/380/9 26/377/9
f 20/380/9 18/18/9 26/377/9
f 18/18/9 16/381/9 14/382/9
f 14/382/9 12/383/9 10/19/9
f 10/19/9 8/384/9 6/385/9
f 6/385/9 4/374/9 10/19/9
f 4/374/9 81/1/9 10/19/9
f 81/1/9 30/375/9 26/377/9
f 18/18/9 14/382/9 10/19/9
f 81/1/9 26/377/9 18/18/9
f 17/386/10 15/387/10 32/388/10
f 32/388/10 34/389/10 17/386/10
f 34/389/10 36/390/10 19/391/10
f 36/390/10 38/392/10 21/393/10
f 38/392/10 40/394/10 23/395/10
f 40/394/10 42/396/10 23/395/10
f 42/396/10 44/22/10 25/21/10
f 23/395/10 42/396/10 25/21/10
f 44/22/10 46/397/10 27/20/10
f 46/397/10 131/398/10 29/399/10
f 27/20/10 46/397/10 29/399/10
f 131/398/10 112/400/10 29/399/10
f 34/389/10 19/391/10 17/386/10
f 38/392/10 23/395/10 21/393/10
f 21/393/10 19/391/10 36/390/10
f 112/105/10 80/3/10 1/2/10
f 1/2/10 3/401/10 9/402/10
f 3/401/10 5/403/10 9/402/10
f 5/403/10 7/404/10 9/402/10
f 9/402/10 11/405/10 13/406/10
f 13/406/10 15/407/10 17/24/10
f 17/24/10 19/408/10 25/409/10
f 19/408/10 21/410/10 25/409/10
f 21/410/10 23/411/10 25/409/10
f 25/409/10 27/412/10 29/23/10
f 29/23/10 112/105/10 1/2/10
f 9/402/10 13/406/10 1/2/10
f 13/406/10 17/24/10 1/2/10
f 25/409/10 29/23/10 17/24/10
f 33/25/11 35/28/11 34/26/11
f 35/28/12 37/30/12 36/29/12
f 37/30/13 39/32/13 38/31/13
f 39/32/14 41/34/14 40/33/14
f 41/34/15 43/36/15 42/35/15
f 43/36/16 45/38/16 44/37/16
f 45/38/17 47/40/17 46/39/17
f 47/40/18 132/413/18 131/41/18
f 15/42/19 32/414/19 33/43/19
f 159/415/9 168/416/9 79/417/9
f 79/417/9 78/418/9 71/419/9
f 78/418/9 77/47/9 70/420/9
f 71/419/9 78/418/9 70/420/9
f 77/47/9 76/421/9 68/45/9
f 76/421/9 75/422/9 67/423/9
f 75/422/9 74/424/9 66/425/9
f 74/424/9 73/426/9 65/427/9
f 73/426/9 72/428/9 65/427/9
f 72/428/9 64/429/9 65/427/9
f 76/421/9 67/423/9 68/45/9
f 74/424/9 65/427/9 66/425/9
f 159/415/9 79/417/9 71/419/9
f 75/422/9 66/425/9 67/423/9
f 69/46/9 70/420/9 77/47/9
f 56/48/20 57/68/20 73/49/20
f 18/54/68 49/430/68 65/51/68
f 64/52/68 48/431/68 16/44/68
f 16/44/20 18/54/20 65/51/20
f 20/56/68 50/432/68 66/53/68
f 65/51/68 49/430/68 18/54/68
f 18/54/21 20/56/21 66/53/21
f 22/58/68 51/433/68 67/55/68
f 66/53/68 50/432/68 20/56/68
f 20/56/22 22/58/22 67/55/22
f 24/60/68 52/434/68 68/57/68
f 67/55/68 51/433/68 22/58/68
f 22/58/23 24/60/23 68/57/23
f 26/62/68 53/435/68 69/59/68
f 68/57/68 52/434/68 24/60/68
f 24/60/24 26/62/24 69/59/24
f 28/64/68 54/436/68 70/61/68
f 69/59/68 53/435/68 26/62/68
f 26/62/25 28/64/25 70/61/25
f 30/66/68 55/437/68 71/63/68
f 70/61/68 54/436/68 28/64/68
f 28/64/26 30/66/26 71/63/26
f 113/147/68 141/438/68 159/65/68
f 71/63/68 55/437/68 30/66/68
f 30/66/27 113/147/27 159/65/27
f 33/43/68 56/439/68 72/67/68
f 64/52/68 48/431/68 16/44/68
f 16/44/19 33/43/19 72/67/19
f 57/68/21 58/70/21 74/69/21
f 58/70/22 59/72/22 75/71/22
f 59/72/23 60/74/23 76/73/23
f 60/74/24 61/76/24 77/75/24
f 61/76/25 62/78/25 78/77/25
f 62/78/26 63/440/26 79/79/26
f 63/80/27 150/441/27 168/81/27
f 82/83/27 83/85/27 81/1/27
f 84/84/26 85/87/26 83/85/26
f 86/86/25 87/89/25 85/87/25
f 88/88/24 89/91/24 87/89/24
f 90/90/23 91/93/23 89/91/23
f 92/92/22 93/95/22 91/93/22
f 94/94/21 95/97/21 93/95/21
f 96/96/20 97/442/20 95/97/20
f 81/1/9 83/85/9 85/99/9
f 85/99/9 87/443/9 89/444/9
f 89/444/9 91/445/9 93/446/9
f 93/446/9 95/447/9 101/100/9
f 95/447/9 97/448/9 101/100/9
f 97/448/9 99/449/9 101/100/9
f 101/100/9 103/450/9 109/451/9
f 103/450/9 105/452/9 109/451/9
f 105/452/9 107/453/9 109/451/9
f 109/451/9 111/454/9 113/98/9
f 113/98/9 81/1/9 85/99/9
f 85/99/9 89/444/9 101/100/9
f 89/444/9 93/446/9 101/100/9
f 109/451/9 113/98/9 101/100/9
f 115/455/10 96/456/10 98/457/10
f 115/455/10 98/457/10 117/458/10
f 98/457/10 100/459/10 117/458/10
f 119/460/10 117/458/10 100/459/10
f 123/461/10 121/462/10 104/463/10
f 121/462/10 119/460/10 102/464/10
f 104/463/10 121/462/10 102/464/10
f 127/103/10 125/465/10 106/101/10
f 125/465/10 123/461/10 104/463/10
f 131/398/10 129/466/10 110/467/10
f 129/466/10 127/103/10 108/102/10
f 110/467/10 112/400/10 131/398/10
f 108/102/10 110/467/10 129/466/10
f 125/465/10 104/463/10 106/101/10
f 100/459/10 102/464/10 119/460/10
f 82/83/10 80/3/10 112/105/10
f 112/105/10 110/468/10 104/469/10
f 110/468/10 108/470/10 104/469/10
f 108/470/10 106/471/10 104/469/10
f 104/469/10 102/472/10 100/473/10
f 100/473/10 98/474/10 96/106/10
f 96/106/10 94/475/10 88/476/10
f 94/475/10 92/477/10 88/476/10
f 92/477/10 90/478/10 88/476/10
f 88/476/10 86/479/10 84/104/10
f 84/104/10 82/83/10 112/105/10
f 104/469/10 100/473/10 112/105/10
f 100/473/10 96/106/10 112/105/10
f 88/476/10 84/104/10 96/106/10
f 117/107/28 118/111/28 116/108/28
f 119/110/29 120/113/29 118/111/29
f 121/112/30 122/115/30 120/113/30
f 123/114/31 124/117/31 122/115/31
f 125/116/32 126/119/32 124/117/32
f 127/118/33 128/121/33 126/119/33
f 129/120/34 130/122/34 128/121/34
f 131/41/35 132/413/35 130/122/35
f 116/123/19 115/480/19 96/124/19
f 167/481/9 168/416/9 159/415/9
f 167/481/9 159/415/9 158/482/9
f 165/126/9 166/483/9 157/484/9
f 166/483/9 167/481/9 158/482/9
f 163/485/9 164/486/9 154/487/9
f 164/486/9 165/126/9 155/128/9
f 154/487/9 164/486/9 155/128/9
f 161/488/9 162/489/9 152/490/9
f 162/489/9 163/485/9 153/491/9
f 152/490/9 162/489/9 153/491/9
f 151/492/9 160/493/9 152/490/9
f 160/493/9 161/488/9 152/490/9
f 166/483/9 158/482/9 157/484/9
f 153/491/9 163/485/9 154/487/9
f 165/126/9 157/484/9 156/127/9
f 161/129/8 143/150/8 142/130/8
f 97/125/68 133/494/68 151/133/68
f 152/134/68 134/495/68 99/132/68
f 99/132/8 97/125/8 151/133/8
f 99/132/68 134/495/68 152/134/68
f 153/136/68 135/496/68 101/135/68
f 101/135/7 99/132/7 152/134/7
f 101/135/68 135/496/68 153/136/68
f 154/138/68 136/497/68 103/137/68
f 103/137/6 101/135/6 153/136/6
f 103/137/68 136/497/68 154/138/68
f 155/140/68 137/498/68 105/139/68
f 105/139/5 103/137/5 154/138/5
f 105/139/68 137/498/68 155/140/68
f 156/142/68 138/499/68 107/141/68
f 107/141/4 105/139/4 155/140/4
f 107/141/68 138/499/68 156/142/68
f 157/144/68 139/500/68 109/143/68
f 109/143/3 107/141/3 156/142/3
f 109/143/68 139/500/68 157/144/68
f 158/146/68 140/501/68 111/145/68
f 111/145/2 109/143/2 157/144/2
f 111/145/68 140/501/68 158/146/68
f 159/65/68 141/438/68 113/147/68
f 113/147/1 111/145/1 158/146/1
f 97/125/68 133/494/68 151/133/68
f 160/148/68 142/502/68 116/123/68
f 116/123/19 97/125/19 151/133/19
f 162/149/7 144/152/7 143/150/7
f 163/151/6 145/154/6 144/152/6
f 164/153/5 146/156/5 145/154/5
f 165/155/4 147/158/4 146/156/4
f 166/157/3 148/160/3 147/158/3
f 167/159/2 149/162/2 148/160/2
f 168/161/1 150/503/1 149/162/1
f 170/163/20 172/166/20 171/164/20
f 172/166/21 174/168/21 173/167/21
f 174/168/22 176/170/22 175/169/22
f 176/170/23 178/172/23 177/171/23
f 178/172/24 180/174/24 179/173/24
f 180/174/25 182/176/25 181/175/25
f 182/176/26 184/178/26 183/177/26
f 184/178/27 186/180/27 185/179/27
f 186/180/1 188/504/1 187/181/1
f 188/182/2 190/185/2 189/183/2
f 190/185/3 192/187/3 191/186/3
f 192/187/4 194/189/4 193/188/4
f 194/189/5 196/191/5 195/190/5
f 196/191/6 198/193/6 197/192/6
f 198/193/7 200/195/7 199/194/7
f 200/195/8 202/197/8 201/196/8
f 202/197/11 204/199/11 203/198/11
f 204/199/12 206/201/12 205/200/12
f 206/201/13 208/203/13 207/202/13
f 208/203/14 210/205/14 209/204/14
f 210/205/15 212/207/15 211/206/15
f 212/207/16 214/209/16 213/208/16
f 214/209/17 216/211/17 215/210/17
f 216/211/18 218/213/18 217/212/18
f 218/213/35 220/215/35 219/214/35
f 220/215/34 222/217/34 221/216/34
f 222/217/33 224/219/33 223/218/33
f 224/219/32 226/221/32 225/220/32
f 226/221/31 228/223/31 227/222/31
f 228/223/30 230/227/30 229/224/30
f 174/505/9 172/506/9 170/507/9
f 170/507/9 232/508/9 174/505/9
f 232/508/9 230/509/9 174/505/9
f 230/509/9 228/510/9 226/511/9
f 226/511/9 224/512/9 222/225/9
f 222/225/9 220/513/9 218/514/9
f 218/514/9 216/515/9 222/225/9
f 216/515/9 214/516/9 222/225/9
f 214/516/9 212/517/9 206/226/9
f 212/517/9 210/518/9 206/226/9
f 210/518/9 208/519/9 206/226/9
f 206/226/9 204/520/9 202/521/9
f 202/521/9 200/522/9 198/523/9
f 198/523/9 196/524/9 194/525/9
f 194/525/9 192/526/9 190/185/9
f 190/185/9 188/182/9 186/527/9
f 186/527/9 184/528/9 190/185/9
f 184/528/9 182/529/9 190/185/9
f 182/529/9 180/530/9 178/531/9
f 178/531/9 176/532/9 174/505/9
f 230/509/9 226/511/9 174/505/9
f 226/511/9 222/225/9 174/505/9
f 206/226/9 202/521/9 190/185/9
f 202/521/9 198/523/9 190/185/9
f 198/523/9 194/525/9 190/185/9
f 182/529/9 178/531/9 190/185/9
f 178/531/9 174/505/9 190/185/9
f 222/225/9 214/516/9 206/226/9
f 174/505/9 222/225/9 190/185/9
f 230/227/29 232/229/29 231/228/29
f 232/229/28 170/163/28 169/165/28
f 231/533/10 169/534/10 171/535/10
f 171/535/10 173/536/10 175/537/10
f 175/537/10 177/538/10 179/539/10
f 179/539/10 181/540/10 175/537/10
f 181/540/10 183/230/10 175/537/10
f 183/230/10 185/541/10 187/184/10
f 187/184/10 189/183/10 183/230/10
f 189/183/10 191/542/10 183/230/10
f 191/542/10 193/543/10 199/231/10
f 193/543/10 195/544/10 199/231/10
f 195/544/10 197/545/10 199/231/10
f 199/231/10 201/546/10 203/547/10
f 203/547/10 205/548/10 207/549/10
f 207/549/10 209/550/10 211/551/10
f 211/551/10 213/552/10 215/232/10
f 215/232/10 217/553/10 219/554/10
f 219/554/10 221/555/10 223/556/10
f 223/556/10 225/557/10 231/533/10
f 225/557/10 227/558/10 231/533/10
f 227/558/10 229/559/10 231/533/10
f 231/533/10 171/535/10 175/537/10
f 199/231/10 203/547/10 215/232/10
f 203/547/10 207/549/10 215/232/10
f 207/549/10 211/551/10 215/232/10
f 215/232/10 219/554/10 231/533/10
f 219/554/10 223/556/10 231/533/10
f 231/533/10 175/537/10 183/230/10
f 183/230/10 191/542/10 199/231/10
f 231/533/10 183/230/10 215/232/10
f 246/233/36 278/237/36 277/234/36
f 247/236/37 279/239/37 278/237/37
f 248/238/38 280/241/38 279/239/38
f 249/240/39 281/243/39 280/241/39
f 250/242/40 282/245/40 281/243/40
f 251/244/41 283/247/41 282/245/41
f 252/246/42 284/249/42 283/247/42
f 253/248/43 285/251/43 284/249/43
f 254/250/44 286/253/44 285/251/44
f 255/252/45 287/255/45 286/253/45
f 256/254/46 288/257/46 287/255/46
f 257/256/47 289/259/47 288/257/47
f 258/258/48 290/261/48 289/259/48
f 259/260/49 291/263/49 290/261/49
f 260/262/50 292/265/50 291/263/50
f 261/264/51 293/267/51 292/265/51
f 262/266/52 294/269/52 293/267/52
f 263/268/53 295/271/53 294/269/53
f 264/270/54 296/273/54 295/271/54
f 233/272/55 265/275/55 296/273/55
f 234/274/56 266/277/56 265/275/56
f 235/276/57 267/279/57 266/277/57
f 236/278/58 268/281/58 267/279/58
f 237/280/59 269/283/59 268/281/59
f 238/282/60 270/285/60 269/283/60
f 239/284/61 271/287/61 270/285/61
f 240/286/62 272/289/62 271/287/62
f 241/288/63 273/291/63 272/289/63
f 242/290/64 274/560/64 273/291/64
f 243/292/65 275/296/65 274/293/65
f 244/295/66 276/297/66 275/296/66
f 245/235/67 277/234/67 276/297/67
f 538/561/10 547/562/10 502/563/10
f 502/563/10 501/564/10 494/565/10
f 501/564/10 500/300/10 493/566/10
f 494/565/10 501/564/10 493/566/10
f 500/300/10 499/567/10 491/298/10
f 499/567/10 498/568/10 490/569/10
f 498/568/10 497/570/10 489/571/10
f 497/570/10 496/572/10 488/573/10
f 496/572/10 495/574/10 488/573/10
f 495/574/10 487/575/10 488/573/10
f 499/567/10 490/569/10 491/298/10
f 497/570/10 488/573/10 489/571/10
f 538/561/10 502/563/10 494/565/10
f 498/568/10 489/571/10 490/569/10
f 492/299/10 493/566/10 500/300/10
f 495/301/8 479/576/8 480/302/8
f 486/304/10 478/308/10 520/305/10
f 486/304/10 485/309/10 477/307/10
f 485/309/10 484/311/10 476/310/10
f 484/311/10 483/577/10 475/312/10
f 475/312/10 483/577/10 482/313/10
f 482/313/10 481/316/10 473/315/10
f 481/316/10 480/318/10 472/317/10
f 480/318/10 479/371/10 471/319/10
f 496/303/7 480/302/7 481/320/7
f 481/320/6 482/323/6 498/322/6
f 482/323/5 483/325/5 499/324/5
f 483/325/4 484/327/4 500/326/4
f 484/327/3 485/329/3 501/328/3
f 485/329/2 486/331/2 502/330/2
f 486/331/1 529/578/1 547/332/1
f 546/579/10 547/562/10 538/561/10
f 546/579/10 538/561/10 537/580/10
f 544/333/10 545/581/10 536/582/10
f 545/581/10 546/579/10 537/580/10
f 542/583/10 543/584/10 533/585/10
f 543/584/10 544/333/10 534/335/10
f 533/585/10 543/584/10 534/335/10
f 540/586/10 541/587/10 531/588/10
f 541/587/10 542/583/10 532/589/10
f 531/588/10 541/587/10 532/589/10
f 530/590/10 539/591/10 540/586/10
f 531/588/10 530/590/10 540/586/10
f 545/581/10 537/580/10 536/582/10
f 532/589/10 542/583/10 533/585/10
f 544/333/10 536/582/10 535/334/10
f 539/336/20 540/354/20 522/337/20
f 520/305/10 519/341/10 528/339/10
f 518/340/10 527/343/10 528/339/10
f 518/340/10 517/345/10 526/342/10
f 516/344/10 525/347/10 526/342/10
f 515/346/10 524/349/10 525/347/10
f 515/346/10 514/351/10 523/348/10
f 513/350/10 522/353/10 523/348/10
f 512/352/10 521/367/10 522/353/10
f 540/354/21 541/357/21 523/355/21
f 542/356/22 524/359/22 523/355/22
f 543/358/23 525/361/23 524/359/23
f 544/360/24 526/363/24 525/361/24
f 545/362/25 527/365/25 526/363/25
f 546/364/26 528/366/26 527/365/26
f 547/332/27 529/578/27 528/366/27
f 521/367/19 512/352/19 530/368/19
f 487/370/19 471/319/19 479/371/19
usemtl metal
f 298/592/20 299/593/20 297/594/20
f 300/595/21 301/596/21 299/593/21
f 302/597/22 303/598/22 301/596/22
f 304/599/23 305/600/23 303/598/23
f 306/601/24 307/602/24 305/600/24
f 308/603/25 309/604/25 307/602/25
f 310/605/26 311/606/26 309/604/26
f 312/607/27 313/608/27 311/606/27
f 314/609/1 315/610/1 313/608/1
f 316/611/2 317/612/2 315/613/2
f 318/614/3 319/615/3 317/612/3
f 320/616/4 321/617/4 319/615/4
f 322/618/5 323/619/5 321/617/5
f 324/620/6 325/621/6 323/619/6
f 326/622/7 327/623/7 325/621/7
f 328/624/8 329/625/8 327/623/8
f 330/626/11 331/627/11 329/625/11
f 332/628/12 333/629/12 331/627/12
f 334/630/13 335/631/13 333/629/13
f 336/632/14 337/633/14 335/631/14
f 338/634/15 339/635/15 337/633/15
f 340/636/16 341/637/16 339/635/16
f 342/638/17 343/639/17 341/637/17
f 344/640/18 345/641/18 343/639/18
f 346/642/35 347/643/35 345/641/35
f 348/644/34 349/645/34 347/643/34
f 350/646/33 351/647/33 349/645/33
f 352/648/32 353/649/32 351/647/32
f 354/650/31 355/651/31 353/649/31
f 356/652/30 357/653/30 355/651/30
f 350/654/9 334/655/9 318/614/9
f 358/656/29 359/657/29 357/653/29
f 360/658/28 297/594/28 359/657/28
f 298/592/20 300/595/20 299/593/20
f 300/595/21 302/597/21 301/596/21
f 302/597/22 304/599/22 303/598/22
f 304/599/23 306/601/23 305/600/23
f 306/601/24 308/603/24 307/602/24
f 308/603/25 310/605/25 309/604/25
f 310/605/26 312/607/26 311/606/26
f 312/607/27 314/609/27 313/608/27
f 314/609/1 316/659/1 315/610/1
f 316/611/2 318/614/2 317/612/2
f 318/614/3 320/616/3 319/615/3
f 320/616/4 322/618/4 321/617/4
f 322/618/5 324/620/5 323/619/5
f 324/620/6 326/622/6 325/621/6
f 326/622/7 328/624/7 327/623/7
f 328/624/8 330/626/8 329/625/8
f 330/626/11 332/628/11 331/627/11
f 332/628/12 334/630/12 333/629/12
f 334/630/13 336/632/13 335/631/13
f 336/632/14 338/634/14 337/633/14
f 338/634/15 340/636/15 339/635/15
f 340/636/16 342/638/16 341/637/16
f 342/638/17 344/640/17 343/639/17
f 344/640/18 346/642/18 345/641/18
f 346/642/35 348/644/35 347/643/35
f 348/644/34 350/646/34 349/645/34
f 350/646/33 352/648/33 351/647/33
f 352/648/32 354/650/32 353/649/32
f 354/650/31 356/652/31 355/651/31
f 356/652/30 358/656/30 357/653/30
f 302/660/9 300/661/9 298/662/9
f 298/662/9 360/663/9 302/660/9
f 360/663/9 358/664/9 302/660/9
f 358/664/9 356/665/9 354/666/9
f 354/666/9 352/667/9 350/654/9
f 350/654/9 348/668/9 346/669/9
f 346/669/9 344/670/9 350/654/9
f 344/670/9 342/671/9 350/654/9
f 342/671/9 340/672/9 334/655/9
f 340/672/9 338/673/9 334/655/9
f 338/673/9 336/674/9 334/655/9
f 334/655/9 332/675/9 330/676/9
f 330/676/9 328/677/9 334/655/9
f 328/677/9 326/678/9 334/655/9
f 326/678/9 324/679/9 322/680/9
f 322/680/9 320/681/9 318/614/9
f 318/614/9 316/611/9 314/682/9
f 314/682/9 312/683/9 318/614/9
f 312/683/9 310/684/9 318/614/9
f 310/684/9 308/685/9 306/686/9
f 306/686/9 304/687/9 302/660/9
f 358/664/9 354/666/9 302/660/9
f 354/666/9 350/654/9 302/660/9
f 326/678/9 322/680/9 318/614/9
f 310/684/9 306/686/9 302/660/9
f 350/654/9 342/671/9 334/655/9
f 334/655/9 326/678/9 318/614/9
f 318/614/9 310/684/9 302/660/9
f 302/660/9 350/654/9 318/614/9
f 358/656/29 360/658/29 359/657/29
f 360/658/28 298/592/28 297/594/28
usemtl tank
f 401/688/8 386/689/8 402/690/8
f 394/691/8 393/692/8 361/693/8
f 395/694/7 394/691/7 362/695/7
f 396/696/6 395/694/6 363/697/6
f 397/698/5 396/696/5 364/699/5
f 398/700/4 397/698/4 365/701/4
f 399/702/3 398/700/3 366/703/3
f 400/704/2 399/702/2 367/705/2
f 417/706/1 453/707/1 400/704/1
f 361/708/19 401/709/19 393/692/19
f 386/689/7 403/710/7 402/690/7
f 387/711/6 404/712/6 403/710/6
f 388/713/5 405/714/5 404/712/5
f 389/715/4 406/716/4 405/714/4
f 390/717/3 407/718/3 406/716/3
f 391/719/2 408/720/2 407/718/2
f 392/721/1 462/722/1 408/720/1
f 455/723/20 436/724/20 454/725/20
f 410/726/20 445/727/20 446/728/20
f 411/729/21 446/728/21 447/730/21
f 412/731/22 447/730/22 448/732/22
f 413/733/23 448/732/23 449/734/23
f 414/735/24 449/734/24 450/736/24
f 415/737/25 450/736/25 451/738/25
f 416/739/26 451/738/26 452/740/26
f 416/739/27 452/740/27 453/707/27
f 445/727/19 454/741/19 418/742/19
f 455/723/21 438/743/21 437/744/21
f 457/745/22 438/743/22 456/746/22
f 458/747/23 439/748/23 457/745/23
f 459/749/24 440/750/24 458/747/24
f 460/751/25 441/752/25 459/749/25
f 461/753/26 442/754/26 460/751/26
f 461/753/27 444/755/27 443/756/27
f 401/688/8 385/757/8 386/689/8
f 362/695/68 378/758/68 394/691/68
f 393/692/68 377/759/68 361/693/68
f 361/693/8 362/695/8 394/691/8
f 363/697/68 379/760/68 395/694/68
f 394/691/68 378/758/68 362/695/68
f 362/695/7 363/697/7 395/694/7
f 364/699/68 380/761/68 396/696/68
f 395/694/68 379/760/68 363/697/68
f 363/697/6 364/699/6 396/696/6
f 365/701/68 381/762/68 397/698/68
f 396/696/68 380/761/68 364/699/68
f 364/699/5 365/701/5 397/698/5
f 366/703/68 382/763/68 398/700/68
f 397/698/68 381/762/68 365/701/68
f 365/701/4 366/703/4 398/700/4
f 367/705/68 383/764/68 399/702/68
f 398/700/68 382/763/68 366/703/68
f 366/703/3 367/705/3 399/702/3
f 368/765/68 384/766/68 400/704/68
f 399/702/68 383/764/68 367/705/68
f 367/705/2 368/765/2 400/704/2
f 417/706/68 435/767/68 453/707/68
f 400/704/68 384/766/68 368/765/68
f 368/765/1 417/706/1 400/704/1
f 369/768/68 385/769/68 401/709/68
f 393/692/68 377/759/68 361/708/68
f 361/708/19 369/768/19 401/709/19
f 386/689/7 387/711/7 403/710/7
f 387/711/6 388/713/6 404/712/6
f 388/713/5 389/715/5 405/714/5
f 389/715/4 390/717/4 406/716/4
f 390/717/3 391/719/3 407/718/3
f 391/719/2 392/721/2 408/720/2
f 392/721/1 444/755/1 462/722/1
f 455/723/20 437/744/20 436/724/20
f 409/770/68 427/771/68 445/727/68
f 446/728/68 428/772/68 410/726/68
f 410/726/20 409/770/20 445/727/20
f 410/726/68 428/772/68 446/728/68
f 447/730/68 429/773/68 411/729/68
f 411/729/21 410/726/21 446/728/21
f 411/729/68 429/773/68 447/730/68
f 448/732/68 430/774/68 412/731/68
f 412/731/22 411/729/22 447/730/22
f 412/731/68 430/774/68 448/732/68
f 449/734/68 431/775/68 413/733/68
f 413/733/23 412/731/23 448/732/23
f 413/733/68 431/775/68 449/734/68
f 450/736/68 432/776/68 414/735/68
f 414/735/24 413/733/24 449/734/24
f 414/735/68 432/776/68 450/736/68
f 451/738/68 433/777/68 415/737/68
f 415/737/25 414/735/25 450/736/25
f 415/737/68 433/777/68 451/738/68
f 452/740/68 434/778/68 416/739/68
f 416/739/26 415/737/26 451/738/26
f 416/739/68 434/778/68 452/740/68
f 453/707/68 435/767/68 417/706/68
f 417/706/27 416/739/27 453/707/27
f 409/770/68 427/771/68 445/727/68
f 454/741/68 436/779/68 418/742/68
f 418/742/19 409/770/19 445/727/19
f 455/723/21 456/746/21 438/743/21
f 457/745/22 439/748/22 438/743/22
f 458/747/23 440/750/23 439/748/23
f 459/749/24 441/752/24 440/750/24
f 460/751/25 442/754/25 441/752/25
f 461/753/26 443/756/26 442/754/26
f 461/753/27 462/722/27 444/755/27
l 35 57
l 37 58
l 39 59
l 41 60
l 43 61
l 45 62
l 47 63
l 132 150
l 118 143
l 120 144
l 122 145
l 124 146
l 126 147
l 128 148
l 130 149
l 382 383
l 383 384
l 384 435
l 377 378
l 378 379
l 379 380
l 380 381
l 381 382
l 370 369
l 371 370
l 372 371
l 373 372
l 374 373
l 375 374
l 376 375
l 426 376
l 370 386
l 371 387
l 372 388
l 373 389
l 374 390
l 375 391
l 376 392
l 426 444
l 453 462
l 432 433
l 433 434
l 434 435
l 427 428
l 428 429
l 429 430
l 430 431
l 431 432
l 419 418
l 420 419
l 421 420
l 422 421
l 423 422
l 424 423
l 425 424
l 426 425
l 419 437
l 420 438
l 421 439
l 422 440
l 423 441
l 424 442
l 425 443
l 464 463
l 465 464
l 466 465
l 467 466
l 468 467
l 469 468
l 470 469
l 511 470
l 464 480
l 465 481
l 466 482
l 467 483
l 468 484
l 469 485
l 470 486
l 511 529
l 504 503
l 505 504
l 506 505
l 507 506
l 508 507
l 509 508
l 510 509
l 511 510
l 504 522
l 505 523
l 506 524
l 507 525
l 508 526
l 509 527
l 510 528
